<svg xmlns="http://www.w3.org/2000/svg" viewBox="0 0 120 120" fill="none">
  <g stroke="#2f4f3d" stroke-width="4.5" stroke-linecap="round" stroke-linejoin="round">
    <path d="M24 70c-3-14 2-25 11-30 9-5 19 0 24 10v45c-10 0-18-3-24-9-6-5-9-10-11-16z" fill="#ead8c4"/>
    <path d="M96 70c3-14-2-25-11-30-9-5-19 0-24 10v45c10 0 18-3 24-9 6-5 9-10 11-16z" fill="#ead8c4"/>
  </g>
  <g stroke="#2c6a3d" stroke-width="4" stroke-linecap="round" stroke-linejoin="round">
    <path d="M60 28v44"/>
    <path d="M60 45c-12-2-17-12-17-20 10 0 18 5 20 16"/>
    <path d="M60 52c12-2 17-12 17-20-10 0-18 5-20 16"/>
    <path d="M60 63c-10-1-14-9-14-15 8 0 14 4 16 12"/>
  </g>
  <g fill="#9ac86f">
    <path d="M44 26c8 0 15 6 16 14-8 0-15-6-16-14z"/>
    <path d="M76 26c-8 0-15 6-16 14 8 0 15-6 16-14z"/>
    <path d="M49 48c6 0 11 5 11 10-6 0-11-5-11-10z"/>
  </g>
</svg>
